<svg xmlns="http://www.w3.org/2000/svg" viewBox="0 0 20 20" fill="#9a9a9a">
  <path d="M4.3,14.7c1.2-0.5,2.2-1,2.7-1.5c0.4-0.5,0.6-1.1,0.6-2c0-0.2-0.1-0.6-0.5-1C7,9.9,6.7,9.4,6.6,8.6c0-0.1-0.1-0.2-0.2-0.4
    c0-0.1-0.1-0.1-0.2-0.1S6,7.9,5.8,7.8c-0.1-0.2-0.1-0.5-0.2-1C5.6,6.3,5.7,6,6,5.9L5.7,4c0-0.7,0.2-1.5,0.9-2.4s1.7-1.2,3.4-1.2
    s2.7,0.4,3.4,1.2c0.6,0.9,0.9,1.6,0.9,2.4c0,0.5-0.1,1.1-0.2,1.9L14,6c0,0,0.1,0.1,0.2,0.2c0.1,0.1,0.1,0.4,0.1,0.5
    c0,0.4-0.1,0.7-0.2,0.9C14,7.8,13.9,8,13.9,8c-0.1,0-0.2,0.1-0.2,0.1c-0.1,0.1-0.1,0.2-0.2,0.4C13.3,9.1,13,9.6,12.8,10
    c-0.5,0.6-0.6,0.9-0.6,1.2c0,0.9,0.2,1.5,0.7,2c0.5,0.5,1.4,1,2.7,1.5c2.9,1,4.3,1.9,4.3,2.6v2.2H0v-2.2C0,16.6,1.5,15.7,4.3,14.7
    L4.3,14.7L4.3,14.7z"/>
</svg>
